<svg
    xmlns="http://www.w3.org/2000/svg"
    version="1.1"
    xmlns:xlink="http://www.w3.org/1999/xlink"
    xmlns:svgjs="http://svgjs.com/svgjs"
    preserveAspectRatio="none"
    viewBox="0 0 1440 560"
  >
    <g mask='url("#SvgjsMask1000")' fill="none">
      <rect
        width="1440"
        height="560"
        x="0"
        y="0"
        fill="rgba(251, 254, 254, 1)"
      ></rect>
      <path
        d="M0,502.622C101.264,492.174,201.359,497.765,296.325,461.09C408.816,417.647,531.243,373.851,596.318,272.329C664.3,166.271,689.815,26.418,651.965,-93.738C615.485,-209.545,488.03,-262.795,401.061,-347.521C322.802,-423.762,270.64,-533.982,166.418,-566.766C61.658,-599.719,-50.492,-560.661,-153.238,-521.88C-250.116,-485.313,-341.553,-432.78,-405.12,-351.039C-466.812,-271.709,-499.513,-172.739,-502.858,-72.3C-505.998,21.98,-448.226,102.326,-423.248,193.291C-392.266,306.123,-432.88,457.537,-338.412,526.579C-245.223,594.686,-114.815,514.468,0,502.622"
        fill="hsla(242, 100%, 70%, 0.1)"
      ></path>
      <path
        d="M1440 1191.837C1553.184 1163.011 1608.114 1037.436 1708.932 978.467 1816.4479999999999 915.581 1966.7910000000002 932.6510000000001 2046.6100000000001 837.03 2131.6459999999997 735.159 2166.549 589.499 2142.565 458.986 2118.857 329.976 2013.421 236.05700000000002 1919.37 144.62400000000002 1832.088 59.771000000000015 1740.351-39.264999999999986 1619.088-49.91899999999998 1501.604-60.240999999999985 1408.393 39.27499999999998 1302.1109999999999 90.394 1215.096 132.24599999999998 1130.877 168.50799999999998 1051.289 223.18 945.7429999999999 295.683 789 337.451 760.669 462.327 732.734 585.46 869.416 681.774 921.112 796.968 973.2629999999999 913.1759999999999 964.443 1065.124 1065.805 1142.26 1168.002 1220.031 1315.55 1223.5320000000002 1440 1191.837"
        fill="#e7f9f9"
      ></path>
    </g>
    <defs>
      <mask id="SvgjsMask1000">
        <rect width="1440" height="560" fill="#ffffff"></rect>
      </mask>
    </defs>
  </svg>