<?xml version="1.0" standalone="no"?>
<!DOCTYPE svg PUBLIC "-//W3C//DTD SVG 20010904//EN"
 "http://www.w3.org/TR/2001/REC-SVG-20010904/DTD/svg10.dtd">
<svg version="1.0" xmlns="http://www.w3.org/2000/svg"
 width="400.000000pt" height="400.000000pt" viewBox="0 0 400.000000 400.000000"
 preserveAspectRatio="xMidYMid meet">
<metadata>
Created by potrace 1.14, written by Peter Selinger 2001-2017
</metadata>
<g transform="translate(0.000000,400.000000) scale(0.100000,-0.100000)"
fill="#000000" stroke="none">
<path d="M2040 2065 c0 -248 1 -255 20 -255 19 0 20 7 20 255 0 248 -1 255
-20 255 -19 0 -20 -7 -20 -255z"/>
<path d="M1010 2280 c0 -19 7 -20 155 -20 148 0 155 1 155 20 0 19 -7 20 -155
20 -148 0 -155 -1 -155 -20z"/>
<path d="M1560 2148 c-46 -32 -71 -68 -80 -117 -22 -122 53 -221 167 -221 60
0 84 9 126 48 l27 26 0 -108 c0 -97 2 -107 18 -104 16 3 17 24 20 251 2 242 2
247 -18 247 -16 0 -20 -7 -20 -37 l0 -37 -27 26 c-42 39 -66 48 -126 48 -40 0
-63 -6 -87 -22z m186 -39 c74 -69 73 -170 -1 -239 -23 -21 -36 -25 -92 -25
-62 0 -66 2 -98 37 -56 60 -59 148 -8 209 35 41 57 49 121 46 38 -3 59 -10 78
-28z"/>
<path d="M2240 2155 c0 -12 22 -15 116 -17 l116 -3 -116 -150 c-64 -82 -116
-156 -116 -162 0 -10 36 -13 145 -13 121 0 145 2 145 15 0 12 -23 15 -121 17
l-121 3 116 149 c64 82 116 155 116 163 0 10 -30 13 -140 13 -116 0 -140 -2
-140 -15z"/>
<path d="M2734 2151 c-149 -91 -104 -322 66 -339 64 -6 112 4 145 30 39 31 17
44 -31 19 -46 -25 -113 -27 -154 -6 -31 16 -70 61 -70 80 0 9 51 22 150 41
120 22 150 31 150 44 0 31 -46 105 -79 127 -44 30 -132 32 -177 4z m160 -30
c16 -11 35 -30 42 -43 27 -49 22 -53 -108 -77 -68 -13 -129 -26 -135 -29 -18
-6 -17 50 1 93 29 69 135 98 200 56z"/>
<path d="M1010 2055 c0 -13 24 -15 155 -15 131 0 155 2 155 15 0 13 -24 15
-155 15 -131 0 -155 -2 -155 -15z"/>
<path d="M1010 1825 c0 -13 24 -15 155 -15 131 0 155 2 155 15 0 13 -24 15
-155 15 -131 0 -155 -2 -155 -15z"/>
</g>
</svg>
